<mxfile host="app.diagrams.net" agent="Mozilla/5.0 (Windows NT 10.0; Win64; x64) AppleWebKit/537.36 (KHTML, like Gecko) Chrome/123.0.0.0 Safari/537.36" version="26.0.4">
  <diagram name="第 1 页" id="OHc1jh5mQG5154_3aiv0">
    <mxGraphModel dx="2261" dy="746" grid="1" gridSize="10" guides="1" tooltips="1" connect="1" arrows="1" fold="1" page="1" pageScale="1" pageWidth="827" pageHeight="1169" math="0" shadow="0">
      <root>
        <mxCell id="0" />
        <mxCell id="1" parent="0" />
        <UserObject label="&lt;font style=&quot;font-size: 14px;&quot;&gt;1&lt;/font&gt;" id="DPTlb5cMxIA0Lj2zTJJo-8">
          <mxCell style="edgeStyle=orthogonalEdgeStyle;rounded=0;orthogonalLoop=1;jettySize=auto;html=1;exitX=1;exitY=0.5;exitDx=0;exitDy=0;entryX=0;entryY=0.5;entryDx=0;entryDy=0;fontColor=#FF0000;endArrow=none;endFill=0;" edge="1" parent="1" source="DPTlb5cMxIA0Lj2zTJJo-1" target="DPTlb5cMxIA0Lj2zTJJo-2">
            <mxGeometry x="-0.7073" relative="1" as="geometry">
              <Array as="points">
                <mxPoint x="871" y="370" />
                <mxPoint x="1000" y="370" />
                <mxPoint x="1000" y="245" />
              </Array>
              <mxPoint as="offset" />
            </mxGeometry>
          </mxCell>
        </UserObject>
        <mxCell id="DPTlb5cMxIA0Lj2zTJJo-28" value="1...*" style="edgeLabel;html=1;align=center;verticalAlign=middle;resizable=0;points=[];" vertex="1" connectable="0" parent="DPTlb5cMxIA0Lj2zTJJo-8">
          <mxGeometry x="0.6464" y="3" relative="1" as="geometry">
            <mxPoint as="offset" />
          </mxGeometry>
        </mxCell>
        <mxCell id="DPTlb5cMxIA0Lj2zTJJo-13" value="" style="edgeStyle=orthogonalEdgeStyle;rounded=0;orthogonalLoop=1;jettySize=auto;html=1;endArrow=none;endFill=0;" edge="1" parent="1" source="DPTlb5cMxIA0Lj2zTJJo-1" target="DPTlb5cMxIA0Lj2zTJJo-3">
          <mxGeometry relative="1" as="geometry" />
        </mxCell>
        <mxCell id="DPTlb5cMxIA0Lj2zTJJo-14" value="1" style="edgeLabel;html=1;align=center;verticalAlign=middle;resizable=0;points=[];fontColor=#FF0000;fontSize=14;" vertex="1" connectable="0" parent="DPTlb5cMxIA0Lj2zTJJo-13">
          <mxGeometry x="-0.5818" y="-1" relative="1" as="geometry">
            <mxPoint as="offset" />
          </mxGeometry>
        </mxCell>
        <mxCell id="DPTlb5cMxIA0Lj2zTJJo-15" value="1" style="edgeLabel;html=1;align=center;verticalAlign=middle;resizable=0;points=[];fontColor=#FF0000;fontSize=14;" vertex="1" connectable="0" parent="DPTlb5cMxIA0Lj2zTJJo-13">
          <mxGeometry x="0.4364" y="-1" relative="1" as="geometry">
            <mxPoint as="offset" />
          </mxGeometry>
        </mxCell>
        <mxCell id="DPTlb5cMxIA0Lj2zTJJo-27" style="edgeStyle=orthogonalEdgeStyle;rounded=0;orthogonalLoop=1;jettySize=auto;html=1;exitX=1;exitY=0.75;exitDx=0;exitDy=0;entryX=0;entryY=0.75;entryDx=0;entryDy=0;endArrow=none;endFill=0;" edge="1" parent="1" source="DPTlb5cMxIA0Lj2zTJJo-1" target="DPTlb5cMxIA0Lj2zTJJo-25">
          <mxGeometry relative="1" as="geometry">
            <Array as="points">
              <mxPoint x="1000" y="418" />
              <mxPoint x="1000" y="518" />
            </Array>
          </mxGeometry>
        </mxCell>
        <mxCell id="DPTlb5cMxIA0Lj2zTJJo-29" value="1" style="edgeLabel;html=1;align=center;verticalAlign=middle;resizable=0;points=[];fontColor=#FF0000;" vertex="1" connectable="0" parent="DPTlb5cMxIA0Lj2zTJJo-27">
          <mxGeometry x="-0.7868" y="1" relative="1" as="geometry">
            <mxPoint x="-5" y="1" as="offset" />
          </mxGeometry>
        </mxCell>
        <mxCell id="DPTlb5cMxIA0Lj2zTJJo-30" value="1...*" style="edgeLabel;html=1;align=center;verticalAlign=middle;resizable=0;points=[];fontColor=#FF0000;" vertex="1" connectable="0" parent="DPTlb5cMxIA0Lj2zTJJo-27">
          <mxGeometry x="0.6489" y="4" relative="1" as="geometry">
            <mxPoint y="1" as="offset" />
          </mxGeometry>
        </mxCell>
        <mxCell id="DPTlb5cMxIA0Lj2zTJJo-31" style="edgeStyle=orthogonalEdgeStyle;rounded=0;orthogonalLoop=1;jettySize=auto;html=1;" edge="1" parent="1" source="DPTlb5cMxIA0Lj2zTJJo-1" target="DPTlb5cMxIA0Lj2zTJJo-24">
          <mxGeometry relative="1" as="geometry">
            <Array as="points">
              <mxPoint x="781" y="280" />
              <mxPoint x="781" y="280" />
            </Array>
          </mxGeometry>
        </mxCell>
        <mxCell id="DPTlb5cMxIA0Lj2zTJJo-37" style="edgeStyle=orthogonalEdgeStyle;rounded=0;orthogonalLoop=1;jettySize=auto;html=1;entryX=1;entryY=0.5;entryDx=0;entryDy=0;endArrow=none;endFill=0;" edge="1" parent="1" source="DPTlb5cMxIA0Lj2zTJJo-1" target="DPTlb5cMxIA0Lj2zTJJo-16">
          <mxGeometry relative="1" as="geometry" />
        </mxCell>
        <mxCell id="DPTlb5cMxIA0Lj2zTJJo-38" value="1" style="edgeLabel;html=1;align=center;verticalAlign=middle;resizable=0;points=[];fontColor=#FF0000;" vertex="1" connectable="0" parent="DPTlb5cMxIA0Lj2zTJJo-37">
          <mxGeometry x="-0.5495" y="-3" relative="1" as="geometry">
            <mxPoint x="4" y="-2" as="offset" />
          </mxGeometry>
        </mxCell>
        <mxCell id="DPTlb5cMxIA0Lj2zTJJo-39" value="1..*" style="edgeLabel;html=1;align=center;verticalAlign=middle;resizable=0;points=[];fontColor=#FF0000;" vertex="1" connectable="0" parent="DPTlb5cMxIA0Lj2zTJJo-37">
          <mxGeometry x="0.6216" y="1" relative="1" as="geometry">
            <mxPoint y="-6" as="offset" />
          </mxGeometry>
        </mxCell>
        <mxCell id="DPTlb5cMxIA0Lj2zTJJo-1" value="&lt;div&gt;&lt;span style=&quot;font-size: 14px;&quot;&gt;积分账户&lt;/span&gt;&lt;/div&gt;&lt;font style=&quot;font-size: 14px;&quot;&gt;NewAccount&lt;/font&gt;" style="rounded=0;whiteSpace=wrap;html=1;fillColor=#d5e8d4;strokeColor=#82b366;" vertex="1" parent="1">
          <mxGeometry x="691" y="350" width="180" height="90" as="geometry" />
        </mxCell>
        <mxCell id="DPTlb5cMxIA0Lj2zTJJo-2" value="&lt;div&gt;&lt;span style=&quot;font-size: 14px;&quot;&gt;积分流水表&lt;/span&gt;&lt;/div&gt;&lt;div&gt;&lt;span style=&quot;font-size: 14px;&quot;&gt;IntegralShopDetails&lt;/span&gt;&lt;br&gt;&lt;/div&gt;" style="rounded=0;whiteSpace=wrap;html=1;fillColor=#d5e8d4;strokeColor=#82b366;" vertex="1" parent="1">
          <mxGeometry x="1100" y="200" width="180" height="90" as="geometry" />
        </mxCell>
        <mxCell id="DPTlb5cMxIA0Lj2zTJJo-3" value="&lt;div&gt;&lt;span style=&quot;font-size: 14px;&quot;&gt;积分账户扩展&lt;/span&gt;&lt;/div&gt;&lt;div&gt;&lt;span style=&quot;font-size: 14px; background-color: transparent; color: light-dark(rgb(0, 0, 0), rgb(255, 255, 255));&quot;&gt;IntegralAccountExtend&lt;/span&gt;&lt;/div&gt;" style="rounded=0;whiteSpace=wrap;html=1;fillColor=#d5e8d4;strokeColor=#82b366;" vertex="1" parent="1">
          <mxGeometry x="691" y="520" width="180" height="80" as="geometry" />
        </mxCell>
        <mxCell id="DPTlb5cMxIA0Lj2zTJJo-16" value="&lt;div&gt;&lt;span style=&quot;font-size: 14px;&quot;&gt;积分订单&lt;/span&gt;&lt;/div&gt;&lt;span style=&quot;font-size: 14px;&quot;&gt;IntegralShopOrder&lt;/span&gt;" style="rounded=0;whiteSpace=wrap;html=1;fillColor=#d5e8d4;strokeColor=#82b366;" vertex="1" parent="1">
          <mxGeometry x="400" y="350" width="180" height="90" as="geometry" />
        </mxCell>
        <mxCell id="DPTlb5cMxIA0Lj2zTJJo-21" style="edgeStyle=orthogonalEdgeStyle;rounded=0;orthogonalLoop=1;jettySize=auto;html=1;exitX=1;exitY=0.5;exitDx=0;exitDy=0;entryX=0;entryY=0.5;entryDx=0;entryDy=0;endArrow=none;endFill=0;" edge="1" parent="1" source="DPTlb5cMxIA0Lj2zTJJo-20" target="DPTlb5cMxIA0Lj2zTJJo-16">
          <mxGeometry relative="1" as="geometry" />
        </mxCell>
        <mxCell id="DPTlb5cMxIA0Lj2zTJJo-22" value="1" style="edgeLabel;html=1;align=center;verticalAlign=middle;resizable=0;points=[];fontColor=#FF0000;fontSize=14;" vertex="1" connectable="0" parent="DPTlb5cMxIA0Lj2zTJJo-21">
          <mxGeometry x="-0.5862" y="-3" relative="1" as="geometry">
            <mxPoint y="-3" as="offset" />
          </mxGeometry>
        </mxCell>
        <mxCell id="DPTlb5cMxIA0Lj2zTJJo-23" value="1...*" style="edgeLabel;html=1;align=center;verticalAlign=middle;resizable=0;points=[];fontColor=#FF0000;fontSize=14;" vertex="1" connectable="0" parent="DPTlb5cMxIA0Lj2zTJJo-21">
          <mxGeometry x="0.5345" y="1" relative="1" as="geometry">
            <mxPoint as="offset" />
          </mxGeometry>
        </mxCell>
        <mxCell id="DPTlb5cMxIA0Lj2zTJJo-51" style="edgeStyle=orthogonalEdgeStyle;rounded=0;orthogonalLoop=1;jettySize=auto;html=1;exitX=0.5;exitY=0;exitDx=0;exitDy=0;entryX=0.5;entryY=1;entryDx=0;entryDy=0;" edge="1" parent="1" source="DPTlb5cMxIA0Lj2zTJJo-20" target="DPTlb5cMxIA0Lj2zTJJo-49">
          <mxGeometry relative="1" as="geometry">
            <Array as="points">
              <mxPoint x="180" y="350" />
              <mxPoint x="180" y="300" />
              <mxPoint x="100" y="300" />
            </Array>
          </mxGeometry>
        </mxCell>
        <mxCell id="DPTlb5cMxIA0Lj2zTJJo-55" value="1" style="edgeLabel;html=1;align=center;verticalAlign=middle;resizable=0;points=[];fontColor=#FF0000;fontSize=14;" vertex="1" connectable="0" parent="DPTlb5cMxIA0Lj2zTJJo-51">
          <mxGeometry x="-0.4261" y="-2" relative="1" as="geometry">
            <mxPoint as="offset" />
          </mxGeometry>
        </mxCell>
        <mxCell id="DPTlb5cMxIA0Lj2zTJJo-56" value="1...*" style="edgeLabel;html=1;align=center;verticalAlign=middle;resizable=0;points=[];fontColor=#FF0000;fontSize=14;" vertex="1" connectable="0" parent="DPTlb5cMxIA0Lj2zTJJo-51">
          <mxGeometry x="0.8" y="-1" relative="1" as="geometry">
            <mxPoint as="offset" />
          </mxGeometry>
        </mxCell>
        <mxCell id="DPTlb5cMxIA0Lj2zTJJo-20" value="&lt;div&gt;&lt;span style=&quot;font-size: 14px;&quot;&gt;积分商品&lt;/span&gt;&lt;/div&gt;&lt;span style=&quot;font-size: 14px;&quot;&gt;IntegralShop&lt;/span&gt;" style="rounded=0;whiteSpace=wrap;html=1;fillColor=#d5e8d4;strokeColor=#82b366;" vertex="1" parent="1">
          <mxGeometry x="140" y="350" width="180" height="90" as="geometry" />
        </mxCell>
        <mxCell id="DPTlb5cMxIA0Lj2zTJJo-24" value="&lt;font style=&quot;font-size: 14px;&quot;&gt;owner_type：&lt;span style=&quot;background-color: transparent; color: light-dark(rgb(0, 0, 0), rgb(255, 255, 255));&quot;&gt;0-长者，1-C端用户&lt;/span&gt;&lt;/font&gt;" style="text;html=1;align=center;verticalAlign=middle;whiteSpace=wrap;rounded=0;" vertex="1" parent="1">
          <mxGeometry x="681" y="170" width="210" height="70" as="geometry" />
        </mxCell>
        <mxCell id="DPTlb5cMxIA0Lj2zTJJo-25" value="&lt;div&gt;&lt;span style=&quot;font-size: 14px;&quot;&gt;积分记录表&lt;/span&gt;&lt;/div&gt;&lt;div&gt;&lt;span style=&quot;font-size: 14px;&quot;&gt;IntegralRecord&lt;/span&gt;&lt;/div&gt;" style="rounded=0;whiteSpace=wrap;html=1;fillColor=#d5e8d4;strokeColor=#82b366;" vertex="1" parent="1">
          <mxGeometry x="1090" y="450" width="180" height="90" as="geometry" />
        </mxCell>
        <mxCell id="DPTlb5cMxIA0Lj2zTJJo-33" style="edgeStyle=orthogonalEdgeStyle;rounded=0;orthogonalLoop=1;jettySize=auto;html=1;exitX=1;exitY=0.5;exitDx=0;exitDy=0;entryX=0;entryY=0.5;entryDx=0;entryDy=0;endArrow=none;endFill=0;" edge="1" parent="1" source="DPTlb5cMxIA0Lj2zTJJo-32" target="DPTlb5cMxIA0Lj2zTJJo-20">
          <mxGeometry relative="1" as="geometry" />
        </mxCell>
        <mxCell id="DPTlb5cMxIA0Lj2zTJJo-40" value="1" style="edgeLabel;html=1;align=center;verticalAlign=middle;resizable=0;points=[];fontColor=#FF0000;" vertex="1" connectable="0" parent="DPTlb5cMxIA0Lj2zTJJo-33">
          <mxGeometry x="-0.4857" y="-1" relative="1" as="geometry">
            <mxPoint as="offset" />
          </mxGeometry>
        </mxCell>
        <mxCell id="DPTlb5cMxIA0Lj2zTJJo-41" value="1" style="edgeLabel;html=1;align=center;verticalAlign=middle;resizable=0;points=[];fontColor=#FF0000;" vertex="1" connectable="0" parent="DPTlb5cMxIA0Lj2zTJJo-33">
          <mxGeometry x="0.6" relative="1" as="geometry">
            <mxPoint as="offset" />
          </mxGeometry>
        </mxCell>
        <mxCell id="DPTlb5cMxIA0Lj2zTJJo-42" value="" style="edgeStyle=orthogonalEdgeStyle;rounded=0;orthogonalLoop=1;jettySize=auto;html=1;endArrow=none;endFill=0;" edge="1" parent="1" source="DPTlb5cMxIA0Lj2zTJJo-32" target="DPTlb5cMxIA0Lj2zTJJo-20">
          <mxGeometry relative="1" as="geometry" />
        </mxCell>
        <mxCell id="DPTlb5cMxIA0Lj2zTJJo-43" value="1" style="edgeLabel;html=1;align=center;verticalAlign=middle;resizable=0;points=[];fontSize=14;fontColor=#FF0000;" vertex="1" connectable="0" parent="DPTlb5cMxIA0Lj2zTJJo-42">
          <mxGeometry x="-0.425" y="-1" relative="1" as="geometry">
            <mxPoint as="offset" />
          </mxGeometry>
        </mxCell>
        <mxCell id="DPTlb5cMxIA0Lj2zTJJo-44" value="1" style="edgeLabel;html=1;align=center;verticalAlign=middle;resizable=0;points=[];fontColor=#FF0000;fontSize=14;" vertex="1" connectable="0" parent="DPTlb5cMxIA0Lj2zTJJo-42">
          <mxGeometry x="0.625" y="1" relative="1" as="geometry">
            <mxPoint as="offset" />
          </mxGeometry>
        </mxCell>
        <mxCell id="DPTlb5cMxIA0Lj2zTJJo-32" value="&lt;div&gt;&lt;span style=&quot;font-size: 14px;&quot;&gt;物品&lt;/span&gt;&lt;/div&gt;&lt;span style=&quot;font-size: 14px;&quot;&gt;IntegralRegistration&lt;/span&gt;" style="rounded=0;whiteSpace=wrap;html=1;fillColor=#d5e8d4;strokeColor=#82b366;" vertex="1" parent="1">
          <mxGeometry x="-120" y="350" width="180" height="90" as="geometry" />
        </mxCell>
        <mxCell id="DPTlb5cMxIA0Lj2zTJJo-45" style="edgeStyle=orthogonalEdgeStyle;rounded=0;orthogonalLoop=1;jettySize=auto;html=1;exitX=1;exitY=0.5;exitDx=0;exitDy=0;entryX=0;entryY=0.5;entryDx=0;entryDy=0;endArrow=none;endFill=0;" edge="1" parent="1" source="DPTlb5cMxIA0Lj2zTJJo-34" target="DPTlb5cMxIA0Lj2zTJJo-32">
          <mxGeometry relative="1" as="geometry" />
        </mxCell>
        <mxCell id="DPTlb5cMxIA0Lj2zTJJo-46" value="1" style="edgeLabel;html=1;align=center;verticalAlign=middle;resizable=0;points=[];fontSize=14;fontColor=#FF0000;" vertex="1" connectable="0" parent="DPTlb5cMxIA0Lj2zTJJo-45">
          <mxGeometry x="-0.6182" y="1" relative="1" as="geometry">
            <mxPoint as="offset" />
          </mxGeometry>
        </mxCell>
        <mxCell id="DPTlb5cMxIA0Lj2zTJJo-47" value="1" style="edgeLabel;html=1;align=center;verticalAlign=middle;resizable=0;points=[];fontColor=#FF0000;fontSize=14;" vertex="1" connectable="0" parent="DPTlb5cMxIA0Lj2zTJJo-45">
          <mxGeometry x="0.4364" y="3" relative="1" as="geometry">
            <mxPoint as="offset" />
          </mxGeometry>
        </mxCell>
        <mxCell id="DPTlb5cMxIA0Lj2zTJJo-34" value="&lt;div&gt;&lt;span style=&quot;font-size: 14px;&quot;&gt;库存&lt;/span&gt;&lt;/div&gt;&lt;span style=&quot;font-size: 14px;&quot;&gt;IntegralInvertoty&lt;/span&gt;" style="rounded=0;whiteSpace=wrap;html=1;fillColor=#d5e8d4;strokeColor=#82b366;" vertex="1" parent="1">
          <mxGeometry x="-410" y="350" width="180" height="90" as="geometry" />
        </mxCell>
        <mxCell id="DPTlb5cMxIA0Lj2zTJJo-49" value="&lt;div&gt;&lt;span style=&quot;font-size: 14px;&quot;&gt;出入库记录&lt;/span&gt;&lt;/div&gt;&lt;span style=&quot;font-size: 14px;&quot;&gt;MaterialsInOutStorage&lt;/span&gt;" style="rounded=0;whiteSpace=wrap;html=1;fillColor=#d5e8d4;strokeColor=#82b366;" vertex="1" parent="1">
          <mxGeometry x="10" y="160" width="180" height="90" as="geometry" />
        </mxCell>
        <mxCell id="DPTlb5cMxIA0Lj2zTJJo-50" value="&lt;div&gt;&lt;span style=&quot;font-size: 14px;&quot;&gt;调配记录&lt;/span&gt;&lt;/div&gt;&lt;span style=&quot;font-size: 14px;&quot;&gt;MaterialsDeployment&lt;/span&gt;" style="rounded=0;whiteSpace=wrap;html=1;fillColor=#d5e8d4;strokeColor=#82b366;" vertex="1" parent="1">
          <mxGeometry x="300" y="160" width="180" height="90" as="geometry" />
        </mxCell>
        <mxCell id="DPTlb5cMxIA0Lj2zTJJo-54" style="edgeStyle=orthogonalEdgeStyle;rounded=0;orthogonalLoop=1;jettySize=auto;html=1;exitX=0.75;exitY=0;exitDx=0;exitDy=0;entryX=0.556;entryY=1.011;entryDx=0;entryDy=0;entryPerimeter=0;" edge="1" parent="1" source="DPTlb5cMxIA0Lj2zTJJo-20" target="DPTlb5cMxIA0Lj2zTJJo-50">
          <mxGeometry relative="1" as="geometry" />
        </mxCell>
        <mxCell id="DPTlb5cMxIA0Lj2zTJJo-57" value="1" style="edgeLabel;html=1;align=center;verticalAlign=middle;resizable=0;points=[];fontColor=#FF0000;fontSize=14;" vertex="1" connectable="0" parent="DPTlb5cMxIA0Lj2zTJJo-54">
          <mxGeometry x="-0.8126" y="-1" relative="1" as="geometry">
            <mxPoint as="offset" />
          </mxGeometry>
        </mxCell>
        <mxCell id="DPTlb5cMxIA0Lj2zTJJo-58" value="1..*" style="edgeLabel;html=1;align=center;verticalAlign=middle;resizable=0;points=[];fontColor=#FF0000;fontSize=14;" vertex="1" connectable="0" parent="DPTlb5cMxIA0Lj2zTJJo-54">
          <mxGeometry x="0.7857" relative="1" as="geometry">
            <mxPoint as="offset" />
          </mxGeometry>
        </mxCell>
      </root>
    </mxGraphModel>
  </diagram>
</mxfile>
